<?xml version="1.0" encoding="UTF-8" standalone="no"?>
<svg
   viewBox="0 0 512 512"
   version="1.1"
   id="svg4"
   sodipodi:docname="right-from-bracket-solid_hover.svg"
   inkscape:version="1.2.2 (b0a8486541, 2022-12-01)"
   xmlns:inkscape="http://www.inkscape.org/namespaces/inkscape"
   xmlns:sodipodi="http://sodipodi.sourceforge.net/DTD/sodipodi-0.dtd"
   xmlns="http://www.w3.org/2000/svg"
   xmlns:svg="http://www.w3.org/2000/svg">
  <defs
     id="defs8" />
  <sodipodi:namedview
     id="namedview6"
     pagecolor="#ffffff"
     bordercolor="#000000"
     borderopacity="0.25"
     inkscape:showpageshadow="2"
     inkscape:pageopacity="0.0"
     inkscape:pagecheckerboard="0"
     inkscape:deskcolor="#d1d1d1"
     showgrid="false"
     inkscape:zoom="1.6191406"
     inkscape:cx="106.538"
     inkscape:cy="228.51629"
     inkscape:window-width="1920"
     inkscape:window-height="1009"
     inkscape:window-x="-8"
     inkscape:window-y="-8"
     inkscape:window-maximized="1"
     inkscape:current-layer="svg4" />
  <!--! Font Awesome Pro 6.2.1 by @fontawesome - https://fontawesome.com License - https://fontawesome.com/license (Commercial License) Copyright 2022 Fonticons, Inc. -->
  <path
     d="M160 96c17.7 0 32-14.3 32-32s-14.3-32-32-32H96C43 32 0 75 0 128V384c0 53 43 96 96 96h64c17.7 0 32-14.3 32-32s-14.3-32-32-32H96c-17.7 0-32-14.3-32-32l0-256c0-17.7 14.3-32 32-32h64zM504.5 273.4c4.8-4.5 7.5-10.8 7.5-17.4s-2.7-12.9-7.5-17.4l-144-136c-7-6.6-17.2-8.4-26-4.6s-14.5 12.5-14.5 22v72H192c-17.7 0-32 14.3-32 32l0 64c0 17.7 14.3 32 32 32H320v72c0 9.6 5.7 18.2 14.5 22s19 2 26-4.6l144-136z"
     id="path2"
     style="fill:#decd87" />
  <path
     style="fill:#decd87;stroke:#ffffff;stroke-width:0.617612"
     d="M 86.774427,479.20447 C 53.153111,475.69712 23.896261,455.07455 9.5930068,424.80082 4.2318017,413.45349 1.5223499,402.79355 0.59857586,389.41355 c -0.72412462,-10.48826 -0.72412462,-256.33884 0,-266.8271 C 1.8347703,104.68133 6.7738162,89.825157 16.264598,75.464562 25.761404,61.094851 37.453983,50.689663 53.185065,42.609158 63.570618,37.274465 74.77298,34.07158 87.611877,32.766136 c 8.261926,-0.840063 71.897213,-0.854942 77.290413,-0.01807 11.8193,1.834013 22.59223,11.579238 25.61056,23.167377 4.16993,16.009444 -4.49969,32.102808 -20.54514,38.13786 -3.42471,1.288109 -4.58113,1.333553 -42.12211,1.655402 -43.149337,0.369931 -41.045264,0.155849 -49.089908,4.994795 -7.051469,4.24152 -12.970727,12.92327 -14.477334,21.23381 -0.932829,5.14556 -0.932829,262.97982 0,268.12538 1.506607,8.31054 7.425865,16.99229 14.477334,21.23381 8.044644,4.83895 5.940571,4.62487 49.089908,4.9948 37.54098,0.32185 38.6974,0.36729 42.12211,1.6554 5.17813,1.94761 8.69004,4.18427 12.40847,7.90271 5.83006,5.83006 9.08341,13.67433 9.08341,21.90132 0,8.83072 -2.63541,15.38366 -8.8808,22.08212 -4.37769,4.69527 -11.42114,8.44844 -17.6765,9.41909 -4.81985,0.7479 -70.888257,0.70775 -78.127863,-0.0475 z"
     id="path187" />
  <path
     style="fill:#decd87;stroke:#ffffff;stroke-width:0.617612"
     d="m 337.11486,414.50464 c -1.92385,-0.6357 -4.46096,-1.751 -5.63801,-2.47846 -3.24316,-2.00438 -7.15031,-6.55774 -8.98453,-10.47048 l -1.6431,-3.50504 -0.1678,-39.0431 -0.16779,-39.0431 -67.15187,-0.17987 c -66.70417,-0.17868 -67.17471,-0.1886 -70.57844,-1.4887 -8.05536,-3.07684 -13.28795,-7.12836 -17.38378,-13.46003 -4.88989,-7.55917 -4.82053,-6.8565 -4.82053,-48.83586 0,-35.39832 0.0605,-37.43124 1.22611,-41.20506 3.48706,-11.28979 14.10869,-20.4011 25.74387,-22.08325 2.5597,-0.37007 29.54036,-0.61483 68.592,-0.62225 l 64.3726,-0.0122 0.16781,-39.0776 0.16782,-39.0776 2.02212,-4.10685 c 5.16235,-10.484474 16.80144,-15.655716 27.75118,-12.329834 2.34823,0.713253 5.36452,2.100332 6.70287,3.082394 1.33834,0.98207 35.55152,33.07624 76.02927,71.32038 70.66703,66.76754 73.67796,69.70145 75.65742,73.72231 1.92207,3.90429 2.0615,4.60699 2.0615,10.3896 0,5.78083 -0.13982,6.48611 -2.05853,10.38356 -1.97492,4.01163 -4.96668,6.92841 -73.66194,71.81568 -39.38188,37.19883 -73.28752,69.13692 -75.34587,70.97355 -6.45343,5.75829 -15.33876,7.82777 -22.89238,5.33185 z"
     id="path189" />
</svg>
