<?xml version="1.0" encoding="utf-8"?>
<svg viewBox="0 0 500 500" xmlns="http://www.w3.org/2000/svg">
  <path d="M 422.264 228.368 C 422.264 241.191 413.316 251.236 403.174 251.236 L 384.084 251.236 L 384.502 365.361 C 384.502 367.284 384.382 369.207 384.204 371.131 L 384.204 382.6 C 384.204 398.344 373.525 411.096 360.342 411.096 L 350.797 411.096 C 350.14 411.096 349.484 411.096 348.828 411.025 C 347.992 411.096 347.158 411.096 346.322 411.096 L 326.934 411.096 L 312.616 411.096 C 299.433 411.096 288.754 398.344 288.754 382.6 L 288.754 365.503 L 288.754 319.91 C 288.754 307.301 280.224 297.114 269.665 297.114 L 231.484 297.114 C 220.925 297.114 212.395 307.301 212.395 319.91 L 212.395 365.503 L 212.395 382.6 C 212.395 398.344 201.716 411.096 188.533 411.096 L 174.215 411.096 L 155.185 411.096 C 154.29 411.096 153.395 411.025 152.501 410.953 C 151.784 411.025 151.068 411.096 150.353 411.096 L 140.808 411.096 C 127.623 411.096 116.945 398.344 116.945 382.6 L 116.945 302.813 C 116.945 302.172 116.945 301.459 117.005 300.818 L 117.005 251.236 L 97.856 251.236 C 87.118 251.236 78.766 241.262 78.766 228.368 C 78.766 221.957 80.555 216.258 84.732 211.271 L 237.689 52.051 C 241.865 47.064 246.637 46.352 250.813 46.352 C 254.989 46.352 259.762 47.778 263.341 51.339 L 415.702 211.271 C 420.474 216.258 422.861 221.957 422.264 228.368 Z" style="fill: rgb(255, 255, 255);"/>
</svg>